<svg xmlns="http://www.w3.org/2000/svg" version="1.1" xmlns:xlink="http://www.w3.org/1999/xlink" xmlns:svgjs="http://svgjs.dev/svgjs" width="2000" height="202" viewBox="0 0 2000 202"><g transform="matrix(1,0,0,1,-1.2120659521395964,0.07033545647563244)"><svg viewBox="0 0 396 40" data-background-color="#ffffff" preserveAspectRatio="xMidYMid meet" height="202" width="2000" xmlns="http://www.w3.org/2000/svg" xmlns:xlink="http://www.w3.org/1999/xlink"><g id="tight-bounds" transform="matrix(1,0,0,1,0.2399890585236335,-0.01392781316349101)"><svg viewBox="0 0 395.52 40.02785562632696" height="40.02785562632696" width="395.52"><g><svg viewBox="0 0 395.52 40.02785562632696" height="40.02785562632696" width="395.52"><g><svg viewBox="0 0 395.52 40.02785562632696" height="40.02785562632696" width="395.52"><g id="textblocktransform"><svg viewBox="0 0 395.52 40.02785562632696" height="40.02785562632696" width="395.52" id="textblock"><g><svg viewBox="0 0 395.52 40.02785562632696" height="40.02785562632696" width="395.52"><g transform="matrix(1,0,0,1,0,0)"><svg width="395.52" viewBox="-0.550000011920929 -35.75 353.22998046875 35.75" height="40.02785562632696" data-palette-color="#2a160c"><path d="M28.3-2.15L35.3-2.15 35.3 0-0.55 0-0.55-2.15 4.3-2.15 4.3-34.95 17.9-34.95Q21.45-34.95 24.03-34.1 26.6-33.25 27.9-31.8L27.9-31.8Q30.25-29.1 30.25-25.7L30.25-25.7Q30.25-21.6 27.6-19.6L27.6-19.6Q26.7-18.9 26.35-18.73 26-18.55 25.1-18.15L25.1-18.15Q28.35-17.45 30.28-15.23 32.2-13 32.2-9.7L32.2-9.7Q32.2-4.75 28.3-2.15L28.3-2.15ZM12.1-14.65L12.1-6.6 17.45-6.6Q20.8-6.6 22.48-7.43 24.15-8.25 24.15-10.68 24.15-13.1 22.38-13.88 20.6-14.65 16.7-14.65L16.7-14.65 12.1-14.65ZM12.1-28.35L12.1-20.8 15.8-20.8Q19.05-20.8 20.63-21.5 22.2-22.2 22.2-24.53 22.2-26.85 20.75-27.6 19.3-28.35 15.85-28.35L15.85-28.35 12.1-28.35ZM65.45-2.15L76.6-2.15 76.6 0 35.3 0 35.3-2.15 46.45-2.15Q42.35-4.5 39.97-8.6 37.6-12.7 37.6-17.7L37.6-17.7Q37.6-25.4 42.9-30.58 48.2-35.75 55.95-35.75 63.7-35.75 69-30.58 74.3-25.4 74.3-17.7L74.3-17.7Q74.3-12.7 71.9-8.6 69.5-4.5 65.45-2.15L65.45-2.15ZM66.35-17.68Q66.35-22.35 63.35-25.65 60.35-28.95 55.97-28.95 51.6-28.95 48.6-25.65 45.6-22.35 45.6-17.68 45.6-13 48.6-9.73 51.6-6.45 55.97-6.45 60.35-6.45 63.35-9.73 66.35-13 66.35-17.68ZM88.7-2.15L93-2.15 93 0 76.6 0 76.6-2.15 80.9-2.15 80.9-34.95 88.7-34.95 88.7-2.15ZM119.99-2.15L124.84-2.15 124.84 0 92.44 0 92.44-2.15 97.29-2.15 97.29-34.95 105.09-34.95 105.09-6.95 119.99-6.95 119.99-2.15ZM120.84-2.15L125.69-2.15 125.69-34.95 150.89-34.95 150.89-28 133.49-28 133.49-20.8 149.14-20.8 149.14-14.15 133.49-14.15 133.49-6.9 151.44-6.9 151.44-2.15 156.29-2.15 156.29 0 120.84 0 120.84-2.15ZM153.54-2.15L158.39-2.15 158.39-34.95 171.64-34.95Q179.79-34.95 183.26-32.2 186.74-29.45 186.74-23.35L186.74-23.35Q186.74-14.95 180.09-12.5L180.09-12.5 187.39-2.15 192.09-2.15 192.09 0 179.34 0 171.59-11.15 166.19-11.15 166.19 0 153.54 0 153.54-2.15ZM171.89-17.9Q175.89-17.9 177.34-19.2 178.79-20.5 178.79-23.33 178.79-26.15 177.29-27.2 175.79-28.25 172.04-28.25L172.04-28.25 166.19-28.25 166.19-17.9 171.89-17.9ZM202.54-2.15L224.29-2.15 224.29 0 189.89 0 189.89-2.15 194.74-2.15 194.74-34.95 207.09-34.95Q215.14-34.95 218.81-31.83 222.49-28.7 222.49-22.23 222.49-15.75 218.71-12.75 214.94-9.75 207.19-9.75L207.19-9.75 202.54-9.75 202.54-2.15ZM207.79-16.5Q211.69-16.5 213.09-18.07 214.49-19.65 214.49-22.68 214.49-25.7 212.66-26.98 210.84-28.25 206.99-28.25L206.99-28.25 202.54-28.25 202.54-16.5 207.79-16.5ZM251.28-2.15L256.13-2.15 256.13 0 223.73 0 223.73-2.15 228.58-2.15 228.58-34.95 236.38-34.95 236.38-6.95 251.28-6.95 251.28-2.15ZM289.23-2.15L295.03-2.15 295.03 0 281.88 0 278.63-7.55 263.98-7.55 260.73 0 247.58 0 247.58-2.15 253.33-2.15 267.53-34.95 275.08-34.95 289.23-2.15ZM275.68-14.4L271.33-24.55 266.93-14.4 275.68-14.4ZM306.48-2.15L317.78-2.15 317.78 0 287.38 0 287.38-2.15 298.68-2.15 298.68-28.2 288.78-28.2 288.78-34.95 316.38-34.95 316.38-28.2 306.48-28.2 306.48-2.15ZM317.23-2.15L322.08-2.15 322.08-34.95 347.28-34.95 347.28-28 329.88-28 329.88-20.8 345.53-20.8 345.53-14.15 329.88-14.15 329.88-6.9 347.83-6.9 347.83-2.15 352.68-2.15 352.68 0 317.23 0 317.23-2.15Z" opacity="1" transform="matrix(1,0,0,1,0,0)" fill="#000000" class="wordmark-text-0" data-fill-palette-color="primary" id="text-0"></path></svg></g></svg></g></svg></g></svg></g></svg></g><defs></defs></svg><rect width="395.52" height="40.02785562632696" fill="none" stroke="none" visibility="hidden"></rect></g></svg></g></svg>