<svg xmlns="http://www.w3.org/2000/svg" version="1.1" xmlns:xlink="http://www.w3.org/1999/xlink" xmlns:svgjs="http://svgjs.dev/svgjs" width="128" height="128" viewBox="0 0 128 128"><g transform="matrix(0.8046875,0,0,0.8046875,12.333870967741937,13.98426481233895)"><svg viewBox="0 0 155 151" data-background-color="#ffffff" preserveAspectRatio="xMidYMid meet" height="124" width="128" xmlns="http://www.w3.org/2000/svg" xmlns:xlink="http://www.w3.org/1999/xlink"><g id="tight-bounds" transform="matrix(1,0,0,1,0.25,0.18933054393303905)"><svg viewBox="0 0 154.50000000000003 150.62133891213392" height="150.62133891213392" width="154.50000000000003"><g><svg viewBox="0 0 154.50000000000003 150.62133891213392" height="150.62133891213392" width="154.50000000000003"><g><svg viewBox="0 0 154.50000000000003 150.62133891213392" height="150.62133891213392" width="154.50000000000003"><g id="textblocktransform"><svg viewBox="0 0 154.50000000000003 150.62133891213392" height="150.62133891213392" width="154.50000000000003" id="textblock"><g><svg viewBox="0 0 154.50000000000003 150.62133891213392" height="150.62133891213392" width="154.50000000000003"><g transform="matrix(1,0,0,1,0,0)"><svg width="154.50000000000003" viewBox="-0.55 -34.95 35.849999999999994 34.95" height="150.62133891213392" data-palette-color="#2a160c"><path d="M28.3-2.15L35.3-2.15 35.3 0-0.55 0-0.55-2.15 4.3-2.15 4.3-34.95 17.9-34.95Q21.45-34.95 24.03-34.1 26.6-33.25 27.9-31.8L27.9-31.8Q30.25-29.1 30.25-25.7L30.25-25.7Q30.25-21.6 27.6-19.6L27.6-19.6Q26.7-18.9 26.35-18.73 26-18.55 25.1-18.15L25.1-18.15Q28.35-17.45 30.28-15.23 32.2-13 32.2-9.7L32.2-9.7Q32.2-4.75 28.3-2.15L28.3-2.15ZM12.1-14.65L12.1-6.6 17.45-6.6Q20.8-6.6 22.48-7.43 24.15-8.25 24.15-10.68 24.15-13.1 22.38-13.88 20.6-14.65 16.7-14.65L16.7-14.65 12.1-14.65ZM12.1-28.35L12.1-20.8 15.8-20.8Q19.05-20.8 20.63-21.5 22.2-22.2 22.2-24.53 22.2-26.85 20.75-27.6 19.3-28.35 15.85-28.35L15.85-28.35 12.1-28.35Z" opacity="1" transform="matrix(1,0,0,1,0,0)" fill="#ffffff" class="wordmark-text-0" data-fill-palette-color="primary" id="text-0"></path></svg></g></svg></g></svg></g></svg></g></svg></g><defs></defs></svg><rect width="154.50000000000003" height="150.62133891213392" fill="none" stroke="none" visibility="hidden"></rect></g></svg></g></svg>